<?xml version="1.0" standalone="no"?>
<!DOCTYPE svg PUBLIC "-//W3C//DTD SVG 20010904//EN"
 "http://www.w3.org/TR/2001/REC-SVG-20010904/DTD/svg10.dtd">
<svg version="1.0" xmlns="http://www.w3.org/2000/svg"
 width="1280.000000pt" height="986.000000pt" viewBox="0 0 1280.000000 986.000000"
 preserveAspectRatio="xMidYMid meet">
<metadata>
Created by potrace 1.15, written by Peter Selinger 2001-2017
</metadata>
<g transform="translate(0.000000,986.000000) scale(0.100000,-0.100000)"
fill="#000000" stroke="none">
<path d="M11436 9844 c-92 -29 -173 -95 -241 -197 -33 -50 -98 -205 -537
-1289 l-161 -398 -5137 0 -5137 0 -61 -31 c-93 -46 -146 -121 -158 -221 -7
-63 41 -295 82 -392 30 -71 113 -340 514 -1666 94 -311 197 -653 230 -760 50
-166 230 -760 496 -1637 35 -117 93 -310 130 -429 59 -196 65 -225 68 -317 4
-155 47 -230 148 -258 46 -12 778 -14 872 -2 36 4 47 3 42 -6 -4 -6 -12 -11
-18 -11 -6 0 -43 -14 -82 -32 -245 -110 -466 -333 -571 -576 -194 -447 -100
-959 238 -1294 619 -613 1640 -321 1864 531 34 129 43 353 19 490 -39 225
-146 436 -305 605 -106 112 -284 227 -426 276 l-50 17 265 7 c258 6 1715 21
3080 31 371 3 695 8 720 10 60 5 25 -9 -60 -25 -196 -36 -434 -169 -573 -319
-213 -232 -317 -493 -317 -799 0 -316 104 -580 314 -800 161 -168 338 -270
556 -321 606 -143 1215 258 1345 883 77 375 -41 778 -307 1045 -183 184 -379
284 -638 325 -64 10 19 13 585 20 429 4 673 11 697 18 21 6 44 21 52 32 8 12
38 46 68 76 46 48 64 81 140 250 47 107 138 310 201 450 240 535 383 853 487
1085 59 132 408 908 775 1725 368 817 674 1505 681 1530 6 25 105 252 219 505
114 253 216 479 226 502 l18 43 188 -199 c103 -109 206 -220 227 -246 96 -115
288 -134 382 -37 105 109 234 533 210 693 -6 42 -15 53 -99 131 -51 47 -140
145 -197 218 -357 453 -416 517 -561 615 -218 146 -367 190 -503 149z m-1542
-3196 c-86 -211 -163 -400 -171 -422 l-16 -38 -51 6 c-28 3 -1890 6 -4137 6
l-4087 0 -20 78 c-104 391 -192 731 -192 741 0 8 1111 11 4414 11 l4415 0
-155 -382z m-568 -1395 c-4 -10 -57 -143 -118 -295 l-112 -278 -3631 0 -3631
0 -73 278 c-40 152 -75 285 -77 295 -5 16 182 17 3821 17 3641 0 3827 -1 3821
-17z m-723 -1785 c-63 -156 -117 -289 -120 -295 -4 -10 -638 -13 -3123 -13
-1904 0 -3121 4 -3125 9 -5 9 -155 566 -155 577 0 2 1494 4 3319 4 l3319 0
-115 -282z"/>
</g>
</svg>
