<svg width="327" height="230" xmlns="http://www.w3.org/2000/svg">
 <g>
  <title>Layer 1</title>
  <path id="svg_45" d="m86.23764,48.04969c1.19485,-0.19829 9.87329,7.89002 10.03697,9.51987c0.23897,2.37994 5.73543,2.37994 7.16925,2.37994c1.4339,0 11.70983,5.15658 18.64012,10.70987c6.93036,5.55323 27.24327,0.39665 28.67709,0c1.4339,-0.39671 66.91328,-10.90816 84.59744,-3.56994c8.49321,3.52431 25.23414,-8.9271 27.42251,-34.80699c-0.89616,-17.25468 -19.59301,-17.90225 -23.47939,-12.64353c-2.86772,2.33036 -7.76672,1.63622 -6.57179,-2.62786c1.08652,-2.85543 8.3641,-11.65188 21.80653,-7.78445c11.39596,3.27867 17.98738,11.16456 20.43243,22.75834c1.61307,24.98962 -20.97017,43.4343 -20.97017,43.4343c0,0 1.79231,6.54494 4.30161,10.70987c2.50922,4.16494 3.22613,18.44468 2.86764,20.22962c-0.35842,1.785 10.75395,11.60237 14.33858,11.89981c3.10669,1.19 11.82936,23.20468 12.18777,27.96456c3.22621,1.33872 -0.35842,8.03237 -4.30154,8.92487c-3.94312,0.8925 -5.01852,-5.35494 -5.01852,-8.32987c0,-2.97494 -3.94312,-16.95725 -15.05549,-18.44468c-11.11237,-1.4875 -20.79085,-6.54494 -20.79085,-6.54494c0,0 -0.71699,2.975 -2.15081,4.165c0,0 3.58463,5.05737 3.58463,12.49475c-0.35842,3.27244 -6.09385,13.38731 -10.03697,14.27981c0,0 -6.45234,8.32987 -9.32006,8.32987c-2.86772,0 -7.88624,2.97494 -15.7724,-0.595c0,0 1.43382,-7.43737 8.60315,-5.35494c0,0 16.8478,-10.70981 8.60307,-15.46975c0,0 -5.01845,-5.94987 -7.88616,-8.32987c-2.86772,-2.37994 -5.73543,-6.24737 -6.45234,-10.70981c0,0 -24.01706,-1.19 -30.11098,-2.38c-6.09385,-1.18994 -17.20622,1.785 -17.20622,3.56994c0,1.785 1.79231,18.74225 5.01845,22.01468c0,0 1.0754,4.16494 0,5.35494c-1.0754,1.18994 3.94312,11.00731 -5.73543,10.11481c-9.14081,1.33872 -13.62159,-4.61115 -2.86764,-6.54487c0.53766,-6.39616 -13.62167,-33.46821 -22.94173,-29.74956c-12.18777,1.4875 -8.06541,-7.28859 -20.07394,6.54494c-12.54627,12.19725 -34.0541,20.82462 -35.12943,26.17956c0,0 -6.45234,-1.19 -7.88624,2.97494c0,0 -16.8478,1.785 -15.7724,-0.595c1.0754,-2.37994 1.97156,-7.28859 8.60315,-5.35487c0,0 15.05549,-4.90872 29.394,-30.34456c0,0 -1.79231,-6.54487 0.71691,-11.89981c2.5093,-5.35487 -1.43382,-27.36956 -19.35703,-26.17956c0,0 -6.69131,1.98329 -10.75388,-7.13987c0,0 -1.67287,-1.785 0,-3.56994c1.67279,-1.785 5.73543,-4.56158 6.45234,-6.54487c0.71691,-1.98335 2.38978,-4.95829 11.47079,-7.73494c4.30161,-3.71865 -0.47786,-11.10646 0.71699,-11.30481z" stroke="#000" fill="#000000"/>
  <text xml:space="preserve" text-anchor="start" font-family="Noto Sans JP" font-size="68" stroke-width="0" id="svg_49" y="221" x="1" stroke="#000" fill="#000000">Michi Store</text>
 </g>

</svg>